<mxfile host="app.diagrams.net" modified="2024-07-27T05:22:50.071Z" agent="Mozilla/5.0 (Macintosh; Intel Mac OS X 10_15_7) AppleWebKit/537.36 (KHTML, like Gecko) Chrome/127.0.0.0 Safari/537.36" version="24.6.5" etag="sdYUCliyMB_QtUjdPoRV" type="github">
  <diagram name="第 1 页" id="2T7kMDmUpsTLugL2DoLo">
    <mxGraphModel>
      <root>
        <mxCell id="0" />
        <mxCell id="1" parent="0" />
      </root>
    </mxGraphModel>
  </diagram>
</mxfile>
